<?xml version="1.0" encoding="UTF-8"?>
<!-- Generated by Pixelmator Pro 3.6.5 -->
<svg width="141" height="32" viewBox="0 0 141 32" xmlns="http://www.w3.org/2000/svg">
    <linearGradient id="linearGradient1" x1="16" y1="0" x2="16" y2="32" gradientUnits="userSpaceOnUse">
        <stop offset="1e-05" stop-color="#2563eb" stop-opacity="1"/>
        <stop offset="1" stop-color="#0049df" stop-opacity="1"/>
    </linearGradient>
    <path id="path1" fill="url(#linearGradient1)" stroke="none" d="M 32 16 C 32 24.836555 24.836555 32 16 32 C 7.163444 32 0 24.836555 0 16 C 0 7.163445 7.163444 0 16 0 C 24.836555 0 32 7.163445 32 16 Z"/>
    <path id="path2" fill="#ffffff" fill-rule="evenodd" stroke="none" d="M 14.9876 11.190601 C 15.1126 10.3323 15.3897 9.230209 15.8188 7.884369 L 16.000099 7.328121 L 16.181299 7.884369 C 16.6105 9.230209 16.8876 10.3323 17.0126 11.190601 C 17.1084 11.819801 17.1084 12.619801 17.0126 13.590599 C 16.9168 14.565601 16.9168 15.371899 17.0126 16.009399 C 17.154301 16.942699 17.581301 17.717699 18.2938 18.3344 C 19.018801 18.963499 19.8584 19.278099 20.812599 19.278099 C 21.870899 19.278099 22.775101 18.905199 23.525101 18.159401 C 24.270901 17.4135 24.648001 16.5135 24.6563 15.4594 C 24.6605 14.526001 24.7563 13.496899 24.9438 12.371899 C 25.0355 11.809399 25.129299 11.338501 25.2251 10.9594 L 25.3501 10.446899 L 25.5751 10.9219 C 26.2209 12.2885 26.558399 13.7302 26.587601 15.246899 L 26.587601 15.4594 C 26.587601 16.8969 26.310499 18.2698 25.7563 19.5781 C 25.2188 20.849001 24.462601 21.971901 23.4876 22.946899 C 22.5084 23.9219 21.3855 24.678101 20.118799 25.215599 C 18.810499 25.7698 17.437599 26.0469 16.000099 26.0469 C 14.5626 26.0469 13.1897 25.7698 11.8813 25.215599 C 10.6147 24.678101 9.49176 23.9219 8.5126 22.946899 C 7.5376 21.971901 6.78135 20.849001 6.24385 19.5781 C 5.68968 18.2698 5.4126 16.8969 5.4126 15.4594 L 5.4126 15.246899 C 5.44176 13.7302 5.77926 12.2885 6.4251 10.9219 L 6.6501 10.446899 L 6.7751 10.9594 C 6.87093 11.338501 6.96468 11.809399 7.05635 12.371899 C 7.24385 13.496899 7.33968 14.526001 7.34385 15.4594 C 7.35218 16.5135 7.72926 17.4135 8.4751 18.159401 C 9.2251 18.905199 10.1293 19.278099 11.1876 19.278099 C 12.1418 19.278099 12.9813 18.963499 13.7063 18.3344 C 14.4188 17.717699 14.8459 16.942699 14.9876 16.009399 C 15.0834 15.371899 15.0834 14.565601 14.9876 13.590599 C 14.8918 12.619801 14.8918 11.819801 14.9876 11.190601 Z M 16.000099 24.115601 C 17.462601 24.115601 18.833401 23.7698 20.1126 23.0781 C 21.0191 22.5903 21.806299 21.9688 22.4743 21.2138 C 22.5576 21.1196 22.4594 20.9762 22.337999 21.0091 C 21.8459 21.142599 21.3374 21.2094 20.812599 21.2094 C 19.770901 21.2094 18.8022 20.946899 17.9063 20.4219 C 17.182501 20 16.582701 19.4522 16.107 18.7785 C 16.055201 18.7052 15.945 18.7052 15.8932 18.7785 C 15.4175 19.4522 14.8177 20 14.0938 20.4219 C 13.198 20.946899 12.2293 21.2094 11.1876 21.2094 C 10.6628 21.2094 10.1543 21.142599 9.66219 21.0091 C 9.54078 20.9762 9.44256 21.1196 9.52591 21.2138 C 10.1938 21.9688 10.9811 22.5903 11.8876 23.0781 C 13.1668 23.7698 14.5376 24.115601 16.000099 24.115601 Z"/>
    <path id="path3" fill="#111111" stroke="none" d="M 40 24.231899 L 44.799999 7.431881 L 49.360001 7.431881 L 54.136002 24.231899 L 51.472 24.231899 L 50.368 20.2719 L 43.792 20.2719 L 42.688 24.231899 L 40 24.231899 Z M 44.439999 17.871901 L 49.720001 17.871901 L 47.271999 9.03989 L 46.888 9.03989 L 44.439999 17.871901 Z"/>
    <path id="path4" fill="#111111" stroke="none" d="M 55.524101 24.231899 L 55.524101 7.3999 L 57.996101 7.3999 L 57.996101 24.231899 Z"/>
    <path id="path5" fill="#111111" stroke="none" d="M 60.632702 24.231899 L 60.632702 7.431881 L 63.224701 7.431881 L 63.224701 14.631901 L 70.280701 14.631901 L 70.280701 7.431881 L 72.872704 7.431881 L 72.872704 24.231899 L 70.280701 24.231899 L 70.280701 16.9839 L 63.224701 16.9839 L 63.224701 24.231899 L 60.632702 24.231899 Z"/>
    <path id="path6" fill="#111111" stroke="none" d="M 80.030701 24.447901 C 79.134697 24.447901 78.334702 24.2479 77.630699 23.8479 C 76.926697 23.447901 76.374702 22.8799 75.974701 22.1439 C 75.574699 21.4079 75.374702 20.527901 75.374702 19.503901 L 75.374702 12.3999 L 77.846703 12.3999 L 77.846703 19.335899 C 77.846703 20.3599 78.102699 21.1199 78.6147 21.6159 C 79.126701 22.0959 79.838699 22.335899 80.750702 22.335899 C 81.758698 22.335899 82.566704 21.999901 83.174698 21.3279 C 83.798698 20.6399 84.110703 19.655899 84.110703 18.3759 L 84.110703 12.3999 L 86.582703 12.3999 L 86.582703 24.231899 L 84.158699 24.231899 L 84.158699 22.4559 L 83.774696 22.4559 C 83.550697 22.9359 83.150703 23.391899 82.574699 23.8239 C 81.998703 24.239901 81.150703 24.447901 80.030701 24.447901 Z"/>
    <path id="path7" fill="#111111" stroke="none" d="M 96.116898 24.5679 C 94.964897 24.5679 94.076897 24.3599 93.452904 23.943899 C 92.844902 23.527901 92.388901 23.0639 92.0849 22.551901 L 91.700897 22.551901 L 91.700897 24.231899 L 89.276901 24.231899 L 89.276901 7.431881 L 91.748901 7.431881 L 91.748901 14.0079 L 92.132896 14.0079 C 92.324898 13.687901 92.580902 13.3839 92.900902 13.0959 C 93.220901 12.791901 93.644897 12.5439 94.172897 12.3519 C 94.700897 12.159901 95.3489 12.0639 96.116898 12.0639 C 97.108902 12.0639 98.020897 12.3039 98.852898 12.783901 C 99.684898 13.263901 100.348999 13.9599 100.845001 14.871899 C 101.341003 15.783901 101.588997 16.871901 101.588997 18.1359 L 101.588997 18.495899 C 101.588997 19.7759 101.333 20.871901 100.820999 21.783899 C 100.324997 22.679899 99.660896 23.367901 98.828903 23.8479 C 98.012901 24.3279 97.108902 24.5679 96.116898 24.5679 Z M 95.396896 22.4079 C 96.468903 22.4079 97.3489 22.0639 98.036903 21.3759 C 98.740898 20.687901 99.092903 19.703899 99.092903 18.423901 L 99.092903 18.207899 C 99.092903 16.943899 98.748901 15.967899 98.060898 15.2799 C 97.372902 14.5919 96.484901 14.2479 95.396896 14.2479 C 94.340897 14.2479 93.460899 14.5919 92.756897 15.2799 C 92.068901 15.967899 91.724899 16.943899 91.724899 18.207899 L 91.724899 18.423901 C 91.724899 19.703899 92.068901 20.687901 92.756897 21.3759 C 93.460899 22.0639 94.340897 22.4079 95.396896 22.4079 Z"/>
    <path id="path8" fill="#111111" stroke="none" d="M 103.620003 24.231899 L 103.620003 7.431881 L 108.491997 7.431881 L 112.164001 22.503901 L 112.547997 22.503901 L 116.220001 7.431881 L 121.092003 7.431881 L 121.092003 24.231899 L 118.571999 24.231899 L 118.571999 9.25589 L 118.188004 9.25589 L 114.540001 24.231899 L 110.171997 24.231899 L 106.524002 9.25589 L 106.139999 9.25589 L 106.139999 24.231899 L 103.620003 24.231899 Z"/>
    <path id="path9" fill="#111111" stroke="none" d="M 123.708 24.231899 L 123.708 12.3999 L 126.18 12.3999 L 126.18 24.231899 L 123.708 24.231899 Z M 124.956001 10.791901 C 124.475998 10.791901 124.068001 10.6399 123.732002 10.335899 C 123.412003 10.0159 123.251999 9.60788 123.251999 9.111881 C 123.251999 8.615891 123.412003 8.215889 123.732002 7.91189 C 124.068001 7.59189 124.475998 7.431881 124.956001 7.431881 C 125.452003 7.431881 125.860001 7.59189 126.18 7.91189 C 126.5 8.215889 126.660004 8.615891 126.660004 9.111881 C 126.660004 9.60788 126.5 10.0159 126.18 10.335899 C 125.860001 10.6399 125.452003 10.791901 124.956001 10.791901 Z"/>
    <path id="path10" fill="#111111" stroke="none" d="M 127.880997 24.231899 L 132.393005 18.255899 L 127.976997 12.3999 L 130.880997 12.3999 L 133.977005 16.6479 L 134.360992 16.6479 L 137.457001 12.3999 L 140.384995 12.3999 L 135.945007 18.255899 L 140.457001 24.231899 L 137.505005 24.231899 L 134.360992 19.887899 L 133.977005 19.887899 L 130.832993 24.231899 L 127.880997 24.231899 Z"/>
</svg>
